:SAMPLES-PER-SECOND 30
:FRAME-RANGE 1-3535
:FULLY-SPECIFIED
:DEGREES
1437
root  -45.0009 35.6178 60.2195 -36.9571 87.3599 -50.3438
RightUpLeg  -48.6652 7.01192 -11.1906
RightLeg  47.195 -5.51446 -6.65242
RightFoot  -20.6794 0.599454 9.04397
RightToes  5.38503e-012 1.26228e-014 -6.01869e-014
Spine  4.20351 -3.79807 -3.97915
Spine1  3.31546 -3.76342 1.77807
HEad  -16.8584 4.12027 -3.2886
LeftShoulder1  1.99212 -5.53358 -16.036
LeftArm  40.6042 -7.98931 -62.1867
LeftForeArm  12.7271 -20.7747 -5.66551
LeftHand  -0.107567 3.60579 6.04157
RightShoulder  0.912886 -0.21707 23.241
RightArm  -22.0176 -10.1149 25.5784
RightForeArm  49.2594 -0.944323 5.4896
RightHand  -0.0501099 -5.13721 -17.3159
LeftUpLeg  1.09428 7.28038 5.51578
LeftLeg  21.399 1.31338 1.32153
LeftFoot  -37.8717 -1.26926 -6.35322
LeftToes  8.9788e-011 3.29689e-010 2.1201e-011
1438
root  -43.7946 35.2356 60.4451 -35.1607 86.853 -48.9098
RightUpLeg  -50.1851 6.56314 -12.2486
RightLeg  46.083 -5.69691 -6.60205
RightFoot  -20.9145 0.636315 9.27864
RightToes  5.38503e-012 1.26228e-014 -6.01869e-014
Spine  4.07935 -3.85146 -3.2119
Spine1  3.69127 -3.83339 2.21139
HEad  -18.0418 4.57681 -4.3818
LeftShoulder1  2.0617 -5.87059 -15.9605
LeftArm  39.8941 -9.34044 -62.9398
LeftForeArm  12.6727 -23.5279 -4.39382
LeftHand  -0.131786 3.26234 6.4932
RightShoulder  0.982089 0.0433529 23.019
RightArm  -22.9936 -5.09036 28.0112
RightForeArm  51.4079 -1.55667 5.15628
RightHand  -0.0248816 -5.30746 -17.9594
LeftUpLeg  3.52858 7.77784 6.52459
LeftLeg  20.1573 0.983735 1.08058
LeftFoot  -37.7338 -1.6179 -7.86604
LeftToes  8.9788e-011 3.29689e-010 2.1201e-011
1439
root  -42.4486 34.7996 60.7092 -37.7977 86.2007 -52.0278
RightUpLeg  -51.3744 4.81103 -11.7896
RightLeg  45.4976 -4.63513 -5.33166
RightFoot  -22.3197 0.779116 9.66651
RightToes  5.38503e-012 1.26228e-014 -6.01869e-014
Spine  4.17867 -3.96787 -1.67008
Spine1  3.44897 -3.89336 2.46513
HEad  -18.6668 5.02761 -5.57142
LeftShoulder1  2.17494 -6.46247 -15.7399
LeftArm  37.4551 -11.326 -63.7571
LeftForeArm  14.9071 -25.1891 -4.60864
LeftHand  -0.142916 3.11873 6.69265
RightShoulder  1.05097 0.355544 22.3837
RightArm  -24.0505 -0.311352 32.1327
RightForeArm  53.1021 -1.27412 4.81406
RightHand  -0.0157317 -5.36385 -18.6603
LeftUpLeg  6.01044 7.41586 7.50606
LeftLeg  19.1407 1.00663 1.47893
LeftFoot  -37.8328 -2.14197 -10.0533
LeftToes  8.9788e-011 3.29689e-010 2.1201e-011
1440
root  -40.973 34.3451 61.0684 -40.9436 85.624 -55.4105
RightUpLeg  -51.7877 2.74787 -10.2158
RightLeg  46.4053 -2.3603 -2.96158
RightFoot  -23.2993 0.983434 10.8749
RightToes  5.38503e-012 1.26228e-014 -6.01869e-014
Spine  4.51037 -4.0044 -0.115062
Spine1  3.40884 -3.99824 2.81518
HEad  -19.1201 5.21093 -6.43084
LeftShoulder1  2.33219 -7.42156 -15.1653
LeftArm  34.6384 -13.3237 -64.3962
LeftForeArm  16.8341 -25.9104 -4.66348
LeftHand  -0.15023 3.3175 7.73592
RightShoulder  1.09545 0.585383 21.8091
RightArm  -24.3944 4.3033 37.5391
RightForeArm  53.8066 -0.152446 4.81247
RightHand  0.0164842 -5.54813 -19.8423
LeftUpLeg  8.42497 6.42387 8.59975
LeftLeg  19.3431 0.873794 1.80287
LeftFoot  -37.3367 -2.77448 -12.9538
LeftToes  8.9788e-011 3.29689e-010 2.1201e-011
1441
root  -39.3386 33.9095 61.5965 -38.5344 84.6822 -53.2915
RightUpLeg  -51.5076 3.23522 -9.06471
RightLeg  49.1496 2.26569 2.4768
RightFoot  -23.0579 1.25501 13.7045
RightToes  5.38503e-012 1.26228e-014 -6.01869e-014
Spine  4.36154 -3.72436 1.15339
Spine1  3.86796 -3.92108 3.27437
HEad  -19.4502 5.35151 -7.21728
LeftShoulder1  2.49826 -8.65065 -14.2352
LeftArm  31.3261 -13.577 -64.318
LeftForeArm  13.0388 -24.4432 -4.54599
LeftHand  -0.18668 2.86161 8.11869
RightShoulder  1.29556 1.37184 21.369
RightArm  -23.9788 7.32169 44.0758
RightForeArm  55.5014 2.41122 5.23681
RightHand  0.0660193 -5.79422 -21.4973
LeftUpLeg  10.2431 3.50692 9.18912
LeftLeg  21.3588 2.77503 2.30593
LeftFoot  -35.3578 -3.58514 -17.7363
LeftToes  8.9788e-011 3.29689e-010 2.1201e-011
1442
root  -37.5795 33.5451 62.1798 -29.7531 82.6235 -44.9249
RightUpLeg  -51.4319 5.17464 -7.5034
RightLeg  52.9553 2.74028 3.52527
RightFoot  -24.1537 1.38521 13.7448
RightToes  5.38503e-012 1.26228e-014 -6.01869e-014
Spine  4.94011 -3.17783 3.38967
Spine1  3.35725 -3.14405 2.57908
HEad  -20.0552 5.67166 -8.76298
LeftShoulder1  2.52133 -8.61787 -14.5109
LeftArm  26.2785 -12.0888 -61.6572
LeftForeArm  12.6924 -20.8252 -5.33591
LeftHand  -0.183348 3.05621 8.60357
RightShoulder  1.48613 2.05505 21.4278
RightArm  -20.4907 9.36439 50.2958
RightForeArm  57.3079 5.54759 6.99658
RightHand  -0.021562 -5.32002 -21.9818
LeftUpLeg  9.90727 0.17173 8.70858
LeftLeg  28.1929 7.47247 4.68356
LeftFoot  -29.9578 -3.83831 -24.1878
LeftToes  8.9788e-011 3.29689e-010 2.1201e-011
1443
root  -35.749 33.4454 62.6676 -27.3302 80.0573 -42.3423
RightUpLeg  -49.5281 7.13623 -5.19964
RightLeg  54.788 2.84 3.92784
RightFoot  -23.4874 1.20934 12.8228
RightToes  5.38503e-012 1.26228e-014 -6.01869e-014
Spine  6.39443 -2.56144 6.66452
Spine1  2.66219 -2.14057 1.49318
HEad  -20.9841 6.54444 -10.0423
LeftShoulder1  2.51534 -8.03408 -15.6472
LeftArm  14.4453 -8.9793 -56.2951
LeftForeArm  21.8872 -14.4167 -9.31946
LeftHand  -0.162642 3.36446 8.65264
RightShoulder  1.67526 2.8458 20.9317
RightArm  -15.6464 9.20255 55.3004
RightForeArm  59.7056 8.32673 8.51186
RightHand  -0.147794 -4.62806 -21.1824
LeftUpLeg  6.52054 0.151688 8.8057
LeftLeg  40.7884 11.3007 10.659
LeftFoot  -17.6527 -1.37745 -26.4483
LeftToes  8.9788e-011 3.29689e-010 2.1201e-011
1444
root  -33.804 33.5792 63.159 -27.5869 77.8993 -42.3039
RightUpLeg  -45.9215 9.58081 -2.94733
RightLeg  55.1962 2.38366 3.28178
RightFoot  -25.7134 1.1719 10.6566
RightToes  5.38503e-012 1.26228e-014 -6.01869e-014
Spine  7.04252 -1.34432 9.48931
Spine1  2.47151 -0.568965 0.337398
HEad  -19.8595 6.76253 -8.67456
LeftShoulder1  2.30991 -6.74494 -16.5228
LeftArm  4.74118 -4.14023 -50.503
LeftForeArm  29.2831 -7.96633 -11.8157
LeftHand  -0.155156 3.38986 8.30728
RightShoulder  1.75097 3.22867 20.4734
RightArm  -18.0631 7.66743 56.9395
RightForeArm  63.7583 4.97936 7.77341
RightHand  -0.187801 -4.39843 -20.9619
LeftUpLeg  0.225137 3.18925 9.96629
LeftLeg  54.0326 10.5551 15.6631
LeftFoot  -0.997145 1.25095 -13.7026
LeftToes  8.9788e-011 3.29689e-010 2.1201e-011
1445
root  -31.6592 34.1907 63.6321 -27.0217 77.1734 -41.0365
RightUpLeg  -39.5154 12.2387 -1.75578
RightLeg  52.2701 1.39037 1.55624
RightFoot  -27.9962 1.28884 10.0859
RightToes  5.38503e-012 1.26228e-014 -6.01869e-014
Spine  8.11415 0.378164 10.185
Spine1  0.684156 1.37551 -0.660644
HEad  -17.8109 4.57642 -6.02305
LeftShoulder1  1.90965 -4.72494 -17.3874
LeftArm  4.23827 2.25027 -44.2978
LeftForeArm  30.1016 -5.7268 -12.6059
LeftHand  -0.133621 3.7053 8.28416
RightShoulder  1.73249 3.10659 20.7085
RightArm  -22.3338 4.00339 53.413
RightForeArm  66.4111 -1.99735 5.21828
RightHand  -0.046994 -5.17964 -20.7372
LeftUpLeg  -5.9523 5.57986 9.81981
LeftLeg  62.5506 4.71296 10.413
LeftFoot  -3.07621 0.337941 -4.42111
LeftToes  8.9788e-011 3.29689e-010 2.1201e-011
1446
root  -29.2454 35.3459 63.9521 -35.4457 81.0106 -49.0349
RightUpLeg  -30.5302 11.0073 -1.56182
RightLeg  45.6469 -0.635994 -1.01195
RightFoot  -28.1728 1.31691 10.1758
RightToes  5.38503e-012 1.26228e-014 -6.01869e-014
Spine  6.88787 1.04887 9.24521
Spine1  0.456649 1.68688 -0.326047
HEad  -15.5963 -0.517821 -3.41704
LeftShoulder1  1.54682 -3.16165 -17.5322
LeftArm  8.55666 8.96008 -37.9884
LeftForeArm  27.9493 -7.11714 -12.7647
LeftHand  -0.119883 3.96856 8.62755
RightShoulder  1.48484 2.06251 21.3611
RightArm  -25.5109 -2.68699 46.3829
RightForeArm  67.0901 -5.42012 3.53756
RightHand  0.157077 -6.34104 -20.4322
LeftUpLeg  -13.3624 3.32333 7.69433
LeftLeg  65.9164 1.42947 4.24443
LeftFoot  -6.71129 0.28748 -6.11306
LeftToes  8.9788e-011 3.29689e-010 2.1201e-011
1447
root  -26.6812 36.7198 64.1774 -91.3861 86.008 -104.478
RightUpLeg  -21.2325 8.27545 -2.06307
RightLeg  39.2396 -3.89208 -3.6787
RightFoot  -24.8162 1.34704 12.7868
RightToes  5.38503e-012 1.26228e-014 -6.01869e-014
Spine  4.55809 0.743813 6.91997
Spine1  0.936679 0.899077 1.0497
HEad  -11.9895 -6.94537 -0.519636
LeftShoulder1  1.25557 -2.08728 -16.8372
LeftArm  18.8792 14.1086 -31.2664
LeftForeArm  23.3261 -10.6838 -12.2422
LeftHand  -0.104322 4.16747 8.46104
RightShoulder  1.38852 1.6653 21.6358
RightArm  -27.2986 -13.3039 38.5604
RightForeArm  66.5879 -5.29459 2.67434
RightHand  0.256 -7.03101 -19.0172
LeftUpLeg  -20.0381 -0.288046 4.43734
LeftLeg  63.8473 1.07044 3.04754
LeftFoot  -9.6133 0.15438 -6.41542
LeftToes  8.9788e-011 3.29689e-010 2.1201e-011
1448
root  -24.2611 37.9985 64.4418 -147.166 82.6638 -159.34
RightUpLeg  -17.9949 5.40803 -1.03628
RightLeg  42.3406 -4.79824 -4.96306
RightFoot  -15.0562 0.401583 15.4642
RightToes  5.38503e-012 1.26228e-014 -6.01869e-014
Spine  3.88297 0.509198 6.38131
Spine1  1.08017 0.755337 -0.115307
HEad  -9.9108 -13.543 1.99415
LeftShoulder1  0.966117 -0.944663 -16.2316
LeftArm  32.8776 17.3656 -23.3284
LeftForeArm  13.2708 -16.6456 -9.13714
LeftHand  -0.112105 3.93238 7.74906
RightShoulder  1.14396 0.821701 21.3566
RightArm  -26.1602 -24.0809 31.9881
RightForeArm  64.5116 -5.38706 2.77109
RightHand  0.262312 -7.24693 -17.3809
LeftUpLeg  -24.8198 -1.55715 2.50515
LeftLeg  58.2323 1.56294 3.27866
LeftFoot  -12.4754 0.0149653 -6.03125
LeftToes  8.9788e-011 3.29689e-010 2.1201e-011
